# xmcd
#
# Track frame offsets:
#	150
#	10548
#	24098
#	37116
#	49539
#	62150
#	76804
#	88708
#	102269
#	115719
#	129623
#	142184
#
# Disc length: 2093 seconds
#
# Revision: 0
# Processed by: cddbd v1.4PL0 Copyright (c) Steve Scherf et al.
# Submitted via: audiograbber 1.82.01
#
DISCID=91082b0c
DTITLE=Various Artist - Just Blues [CD 2) I Can't Be Satisfied
DYEAR=2003
DGENRE=Blues
TTITLE0=Johnson, Robert - Stop Breakin' Down Blues
TTITLE1=Jefferson, Blind Lemon - Black Snake Moan
TTITLE2=Williamson, Sonny Boy - Thinking My Blues Away
TTITLE3=Broonzy, Big Bill - I Can't Be Satisfied
TTITLE4=Memphis Minnie - Me And My Chaufteur Blues
TTITLE5=Fuller, Blind Boy - Working Man Blues
TTITLE6=Johnson, Lonnie - Crowing Rooster Blues
TTITLE7=White, Josh - Outskirts Of Town
TTITLE8=Lewis, Meade Lux - Honky Tonk Train Blues
TTITLE9=Smith, Mamie - Goin' Crazy With The Blues
TTITLE10=White, Bukka - Fixin' To Die
TTITLE11=McTell, Blind Willie - Travelin' Blues
EXTD=
EXTT0=
EXTT1=
EXTT2=
EXTT3=
EXTT4=
EXTT5=
EXTT6=
EXTT7=
EXTT8=
EXTT9=
EXTT10=
EXTT11=
PLAYORDER=
